<mxfile host="app.diagrams.net" modified="2021-05-29T10:54:45.606Z" agent="5.0 (Windows NT 10.0; Win64; x64) AppleWebKit/537.36 (KHTML, like Gecko) Chrome/90.0.4430.212 Safari/537.36" etag="e4nZd4dO1wTjwqZIdLNi" version="14.7.3" type="github">
  <diagram id="mIR0l4wgYCn5jaUuHE92" name="Page-1">
    <mxGraphModel dx="1038" dy="585" grid="1" gridSize="10" guides="1" tooltips="1" connect="1" arrows="1" fold="1" page="1" pageScale="1" pageWidth="827" pageHeight="1169" math="0" shadow="0">
      <root>
        <mxCell id="0" />
        <mxCell id="1" parent="0" />
        <mxCell id="-Go-RoFM1NlQS1YzIKfJ-1" value="" style="ellipse;whiteSpace=wrap;html=1;aspect=fixed;fillColor=#1ba1e2;strokeColor=#006EAF;fontColor=#ffffff;" vertex="1" parent="1">
          <mxGeometry x="100" y="190" width="210" height="210" as="geometry" />
        </mxCell>
        <mxCell id="-Go-RoFM1NlQS1YzIKfJ-2" value="&lt;font color=&quot;#ffffff&quot; style=&quot;font-size: 32px;&quot;&gt;main{}&lt;/font&gt;" style="text;html=1;strokeColor=none;fillColor=none;align=center;verticalAlign=middle;whiteSpace=wrap;rounded=0;fontSize=32;" vertex="1" parent="1">
          <mxGeometry x="100" y="290" width="220" height="20" as="geometry" />
        </mxCell>
        <mxCell id="-Go-RoFM1NlQS1YzIKfJ-4" value="" style="whiteSpace=wrap;html=1;aspect=fixed;fontSize=32;fillColor=#dae8fc;strokeColor=#6c8ebf;" vertex="1" parent="1">
          <mxGeometry x="450" y="80" width="470" height="470" as="geometry" />
        </mxCell>
        <mxCell id="-Go-RoFM1NlQS1YzIKfJ-5" value="" style="whiteSpace=wrap;html=1;aspect=fixed;fontSize=32;fillColor=#d5e8d4;strokeColor=#82b366;" vertex="1" parent="1">
          <mxGeometry x="547" y="190" width="300" height="300" as="geometry" />
        </mxCell>
        <mxCell id="-Go-RoFM1NlQS1YzIKfJ-7" value="" style="endArrow=classic;html=1;fontSize=32;" edge="1" parent="1" source="-Go-RoFM1NlQS1YzIKfJ-2">
          <mxGeometry width="50" height="50" relative="1" as="geometry">
            <mxPoint x="390" y="330" as="sourcePoint" />
            <mxPoint x="450" y="300" as="targetPoint" />
            <Array as="points">
              <mxPoint x="310" y="300" />
              <mxPoint x="320" y="300" />
            </Array>
          </mxGeometry>
        </mxCell>
        <mxCell id="-Go-RoFM1NlQS1YzIKfJ-8" value="App" style="text;html=1;strokeColor=none;fillColor=none;align=center;verticalAlign=middle;whiteSpace=wrap;rounded=0;fontSize=32;" vertex="1" parent="1">
          <mxGeometry x="665" y="50" width="40" height="20" as="geometry" />
        </mxCell>
        <mxCell id="-Go-RoFM1NlQS1YzIKfJ-10" value="Home" style="text;html=1;strokeColor=none;fillColor=none;align=center;verticalAlign=middle;whiteSpace=wrap;rounded=0;fontSize=32;" vertex="1" parent="1">
          <mxGeometry x="665" y="300" width="40" height="20" as="geometry" />
        </mxCell>
      </root>
    </mxGraphModel>
  </diagram>
</mxfile>
